<svg width="36" height="33" viewBox="0 0 36 33" fill="none" xmlns="http://www.w3.org/2000/svg">
<path d="M3.82001 10.6751L5.96335 28.9001H30.0367L32.18 10.6751L25.4967 15.1301L18 4.63506L10.5033 15.1301L3.82001 10.6751ZM2.66835 5.90006L9.66668 10.5667L16.6433 0.80006C16.7975 0.584009 17.0011 0.407902 17.237 0.286397C17.473 0.164892 17.7346 0.101501 18 0.101501C18.2654 0.101501 18.527 0.164892 18.763 0.286397C18.999 0.407902 19.2025 0.584009 19.3567 0.80006L26.3333 10.5667L33.3333 5.90006C33.5983 5.7238 33.9081 5.62707 34.2263 5.62129C34.5444 5.6155 34.8576 5.70092 35.1287 5.86743C35.3999 6.03394 35.6177 6.2746 35.7564 6.56095C35.8952 6.84731 35.949 7.1674 35.9117 7.48339L33.1733 30.7617C33.1256 31.1671 32.9307 31.5409 32.6256 31.8122C32.3206 32.0835 31.9266 32.2333 31.5183 32.2334H4.48168C4.07346 32.2333 3.67945 32.0835 3.37439 31.8122C3.06933 31.5409 2.87444 31.1671 2.82668 30.7617L0.0883458 7.48173C0.0513458 7.16587 0.105488 6.84601 0.24438 6.55992C0.383273 6.27383 0.601117 6.03345 0.872197 5.86716C1.14328 5.70087 1.45628 5.6156 1.77424 5.62143C2.09221 5.62726 2.40188 5.72394 2.66668 5.90006H2.66835ZM18 22.2334C17.116 22.2334 16.2681 21.8822 15.643 21.2571C15.0179 20.632 14.6667 19.7841 14.6667 18.9001C14.6667 18.016 15.0179 17.1682 15.643 16.543C16.2681 15.9179 17.116 15.5667 18 15.5667C18.8841 15.5667 19.7319 15.9179 20.357 16.543C20.9822 17.1682 21.3333 18.016 21.3333 18.9001C21.3333 19.7841 20.9822 20.632 20.357 21.2571C19.7319 21.8822 18.8841 22.2334 18 22.2334Z" fill="white"/>
</svg>
