<svg width="41" height="32" viewBox="0 0 41 32" fill="none" xmlns="http://www.w3.org/2000/svg">
<path d="M8.62167 1.6119e-08H32.3783C32.6413 -3.65556e-05 32.9006 0.0621591 33.1349 0.181503C33.3693 0.300847 33.572 0.473951 33.7267 0.686667L40.0983 9.44667C40.2116 9.60254 40.2674 9.79284 40.2561 9.98519C40.2449 10.1775 40.1673 10.3601 40.0367 10.5017L21.1117 31.0033C20.9617 31.1654 20.7536 31.2613 20.533 31.2701C20.3124 31.2788 20.0973 31.1997 19.935 31.05C19.9233 31.04 13.6017 24.1917 0.963338 10.5017C0.832678 10.3601 0.755126 10.1775 0.743883 9.98519C0.732639 9.79284 0.788399 9.60254 0.901672 9.44667L7.27334 0.686667C7.42797 0.473951 7.63075 0.300847 7.86509 0.181503C8.09943 0.0621591 8.35869 -3.65556e-05 8.62167 1.6119e-08ZM9.47167 3.33333L4.805 9.75L20.5 26.75L36.195 9.75L31.5283 3.33333H9.47167Z" fill="white"/>
</svg>
