<svg width="40" height="40" viewBox="0 0 40 40" fill="none" xmlns="http://www.w3.org/2000/svg">
<g clip-path="url(#clip0_1_440)">
<path d="M5.82001 13.4417L7.96335 31.6667H32.0367L34.18 13.4417L27.4967 17.8967L20 7.40172L12.5033 17.8967L5.82001 13.4417ZM4.66835 8.66672L11.6667 13.3334L18.6433 3.56672C18.7975 3.35067 19.0011 3.17456 19.237 3.05306C19.473 2.93155 19.7346 2.86816 20 2.86816C20.2654 2.86816 20.527 2.93155 20.763 3.05306C20.999 3.17456 21.2025 3.35067 21.3567 3.56672L28.3333 13.3334L35.3333 8.66672C35.5983 8.49047 35.9081 8.39373 36.2263 8.38795C36.5444 8.38217 36.8576 8.46758 37.1287 8.63409C37.3999 8.8006 37.6177 9.04126 37.7564 9.32761C37.8952 9.61397 37.949 9.93406 37.9117 10.2501L35.1733 33.5284C35.1256 33.9338 34.9307 34.3076 34.6256 34.5789C34.3206 34.8501 33.9266 35 33.5183 35.0001H6.48168C6.07346 35 5.67945 34.8501 5.37439 34.5789C5.06933 34.3076 4.87444 33.9338 4.82668 33.5284L2.08835 10.2484C2.05135 9.93253 2.10549 9.61267 2.24438 9.32658C2.38327 9.0405 2.60112 8.80012 2.8722 8.63382C3.14328 8.46753 3.45628 8.38227 3.77424 8.3881C4.09221 8.39393 4.40188 8.4906 4.66668 8.66672H4.66835ZM20 25.0001C19.116 25.0001 18.2681 24.6489 17.643 24.0237C17.0179 23.3986 16.6667 22.5508 16.6667 21.6667C16.6667 20.7827 17.0179 19.9348 17.643 19.3097C18.2681 18.6846 19.116 18.3334 20 18.3334C20.8841 18.3334 21.7319 18.6846 22.357 19.3097C22.9822 19.9348 23.3333 20.7827 23.3333 21.6667C23.3333 22.5508 22.9822 23.3986 22.357 24.0237C21.7319 24.6489 20.8841 25.0001 20 25.0001Z" fill="white"/>
</g>
<defs>
<clipPath id="clip0_1_440">
<rect width="40" height="40" fill="white"/>
</clipPath>
</defs>
</svg>
