<svg width="40" height="41" viewBox="0 0 40 41" fill="none" xmlns="http://www.w3.org/2000/svg">
<g clip-path="url(#clip0_1_549)">
<path d="M18.3333 3.56573C26.6133 3.56573 33.3333 10.2857 33.3333 18.5657C33.3333 26.8457 26.6133 33.5657 18.3333 33.5657C10.0533 33.5657 3.33331 26.8457 3.33331 18.5657C3.33331 10.2857 10.0533 3.56573 18.3333 3.56573ZM18.3333 30.2324C24.7783 30.2324 30 25.0107 30 18.5657C30 12.1191 24.7783 6.89907 18.3333 6.89907C11.8866 6.89907 6.66665 12.1191 6.66665 18.5657C6.66665 25.0107 11.8866 30.2324 18.3333 30.2324ZM32.475 30.3507L37.19 35.0641L34.8316 37.4224L30.1183 32.7074L32.475 30.3507Z" fill="white"/>
</g>
<defs>
<clipPath id="clip0_1_549">
<rect width="40" height="40" fill="white" transform="translate(0 0.232422)"/>
</clipPath>
</defs>
</svg>
